HIERARCHY
ROOT RootJoint
{
    OFFSET   0.000000   0.000000   0.000000
    CHANNELS 6 Xposition Yposition Zposition Xrotation Yrotation Zrotation
    JOINT pelvis_lowerback
    {
        OFFSET   0.000000   0.093605   0.000000
        CHANNELS 3 Xrotation Yrotation Zrotation
        JOINT lowerback_torso
        {
            OFFSET   0.000000   0.100000   0.000000
            CHANNELS 3 Xrotation Yrotation Zrotation
            JOINT torso_head
            {
                OFFSET   0.000000   0.282350   0.000000
                CHANNELS 3 Xrotation Yrotation Zrotation
                End Site
                {
                    OFFSET   0.000000   0.192650   0.000000
                }
            }
            JOINT rTorso_Clavicle
            {
                OFFSET  -0.001000   0.157500   0.000000
                CHANNELS 3 Xrotation Yrotation Zrotation
                JOINT rShoulder
                {
                    OFFSET  -0.117647   0.000000   0.000000
                    CHANNELS 3 Xrotation Yrotation Zrotation
                    JOINT rElbow
                    {
                        OFFSET  -0.245000   0.000000   0.000000
                        CHANNELS 3 Xrotation Yrotation Zrotation
                        JOINT rWrist
                        {
                            OFFSET  -0.240000   0.000000   0.000000
                            CHANNELS 3 Xrotation Yrotation Zrotation
                            End Site
                            {
                                OFFSET  -0.116353  -0.002500   0.000000
                            }
                        }
                    }
                }
            }
            JOINT lTorso_Clavicle
            {
                OFFSET   0.001000   0.157500   0.000000
                CHANNELS 3 Xrotation Yrotation Zrotation
                JOINT lShoulder
                {
                    OFFSET   0.117647   0.000000   0.000000
                    CHANNELS 3 Xrotation Yrotation Zrotation
                    JOINT lElbow
                    {
                        OFFSET   0.245000   0.000000   0.000000
                        CHANNELS 3 Xrotation Yrotation Zrotation
                        JOINT lWrist
                        {
                            OFFSET   0.240000   0.000000   0.000000
                            CHANNELS 3 Xrotation Yrotation Zrotation
                            End Site
                            {
                                OFFSET   0.116353  -0.002500   0.000000
                            }
                        }
                    }
                }
            }
        }
    }
    JOINT rHip
    {
        OFFSET  -0.100000  -0.051395   0.000000
        CHANNELS 3 Xrotation Yrotation Zrotation
        JOINT rKnee
        {
            OFFSET   0.000000  -0.410000   0.000000
            CHANNELS 3 Xrotation Yrotation Zrotation
            JOINT rAnkle
            {
                OFFSET   0.000000  -0.390000   0.000000
                CHANNELS 3 Xrotation Yrotation Zrotation
                JOINT rToeJoint
                {
                    OFFSET   0.000000  -0.050000   0.130000
                    CHANNELS 3 Xrotation Yrotation Zrotation
                    End Site
                    {
                        OFFSET  -0.010000   0.002000   0.060000
                    }
                }
            }
        }
    }
    JOINT lHip
    {
        OFFSET   0.100000  -0.051395   0.000000
        CHANNELS 3 Xrotation Yrotation Zrotation
        JOINT lKnee
        {
            OFFSET   0.000000  -0.410000   0.000000
            CHANNELS 3 Xrotation Yrotation Zrotation
            JOINT lAnkle
            {
                OFFSET   0.000000  -0.390000   0.000000
                CHANNELS 3 Xrotation Yrotation Zrotation
                JOINT lToeJoint
                {
                    OFFSET   0.000000  -0.050000   0.130000
                    CHANNELS 3 Xrotation Yrotation Zrotation
                    End Site
                    {
                        OFFSET   0.010000   0.002000   0.060000
                    }
                }
            }
        }
    }
}
MOTION
Frames: 17
Frame Time:   0.008333
 -2.376719   0.925631   3.975860   0.000000   0.000000   0.000000   0.000000   0.000000   0.000000   0.000000   0.000000   0.000000   0.000000   0.000000   0.000000   0.000000   0.000000   0.000000   0.000000   0.000000   0.000000   0.000000   0.000000   0.000000   0.000000   0.000000   0.000000   0.000000   0.000000   0.000000   0.000000   0.000000   0.000000   0.000000   0.000000   0.000000   0.000000   0.000000   0.000000   0.000000   0.000000   0.000000   0.000000   0.000000   0.000000   0.000000   0.000000   0.000000   0.000000   0.000000   0.000000   0.000000   0.000000   0.000000   0.000000   0.000000   0.000000   0.000000   0.000000   0.000000   0.000000   0.000000   0.000000
 -2.376591   0.925888   3.975414   0.027887   0.134123  -0.016011  -0.068735   0.054931   0.011668   0.273239  -0.180192   0.045641  -0.186314   0.094242   0.066329   0.214481  -0.229120   0.300214   0.530336   0.046121   1.494758   0.005466   0.340548  -0.002912   0.351714   0.007216  -2.040826   0.075966   0.084343  -0.585728   0.671174   0.094486  -1.299428   0.005523  -0.342600   0.002939   0.404064  -0.131481   2.125049  -0.428762   0.236784  -0.263496   1.192343   0.002951   0.003820  -1.006001  -0.257054  -0.006212  -0.106485  -0.000262  -0.000107  -0.657629  -0.162115   0.275064   1.790184  -0.004079  -0.000348  -1.451242   0.066557   0.025790   0.179073  -0.000447   0.000058
 -2.376436   0.926279   3.975110  -0.012358   0.279370  -0.035161  -0.100942   0.110378   0.033782   0.604738  -0.364702   0.097400  -0.340037   0.185681   0.142515   0.427068  -0.477033   1.179743   1.030627   0.083591   3.354570   0.012203   0.660183  -0.005023   0.731337   0.077038  -3.480768   0.157807   0.179125  -1.771216   1.307363   0.177115  -3.000478   0.012449  -0.665683   0.005104   0.839544  -0.326771   3.646838  -0.781816   0.473851  -0.747049   2.446915   0.008083   0.006967  -1.943495  -0.499663  -0.017558  -0.242753  -0.000820  -0.000253  -1.241314  -0.315412   0.770789   3.663256  -0.011134   0.000186  -2.802027   0.132807   0.053147   0.304914  -0.000916   0.000118
 -2.376273   0.926452   3.974944  -0.055180   0.421047  -0.052697  -0.135121   0.160797   0.057872   0.926005  -0.540567   0.147407  -0.474589   0.271231   0.218069   0.631295  -0.719451   2.421874   1.496638   0.124233   5.404469   0.018418   0.954574  -0.006317   1.098864   0.143356  -4.245353   0.236925   0.275789  -3.313783   1.904217   0.240696  -4.914876   0.018909  -0.964922   0.006468   1.262379  -0.520665   4.470641  -1.094873   0.696632  -1.411066   3.642709   0.013917   0.008767  -2.817084  -0.728772  -0.033253  -0.368797  -0.001425  -0.000347  -1.767302  -0.459897   1.443276   5.443740  -0.019145   0.001421  -4.060717   0.197713   0.081776   0.422170  -0.001439   0.000181
 -2.376112   0.926156   3.974890  -0.087573   0.554955  -0.067962  -0.175025   0.206471   0.080603   1.222180  -0.706325   0.193755  -0.597956   0.350981   0.290243   0.828026  -0.949854   3.871780   1.930284   0.173535   7.533576   0.023432   1.226991  -0.007003   1.450955   0.204601  -4.509504   0.313132   0.371606  -5.050680   2.463690   0.282686  -6.923913   0.024161  -1.242698   0.007226   1.668027  -0.708950   4.778820  -1.379783   0.906802  -2.218789   4.763818   0.019579   0.009428  -3.632552  -0.944885  -0.052464  -0.487898  -0.002020  -0.000400  -2.247447  -0.599799   2.256885   7.112331  -0.026943   0.003100  -5.235639   0.260531   0.111310   0.525981  -0.001908   0.000234
 -2.375954   0.925215   3.974929  -0.109033   0.679397  -0.081169  -0.219834   0.248069   0.100883   1.492513  -0.861969   0.236067  -0.712376   0.425273   0.358222   1.017755  -1.166895   5.423025   2.333349   0.232209   9.667057   0.027049   1.479819  -0.007252   1.787655   0.264520  -4.437145   0.386700   0.465867  -6.873016   2.987513   0.303996  -8.948942   0.027979  -1.501017   0.007545   2.055800  -0.893551   4.741651  -1.639866   1.106770  -3.137904   5.811741   0.024590   0.009256  -4.393998  -1.148328  -0.074399  -0.600001  -0.002555  -0.000423  -2.686667  -0.738098   3.180744   8.672508  -0.033876   0.004998  -6.332600   0.320740   0.141398   0.617747  -0.002287   0.000274
 -2.375802   0.923505   3.975043  -0.121450   0.793691  -0.092584  -0.268275   0.286063   0.118453   1.739101  -1.007916   0.274397  -0.818715   0.494476   0.421850   1.200788  -1.371196   7.003612   2.707591   0.298729  11.755951   0.029315   1.714676  -0.007196   2.109356   0.324324  -4.150627   0.458047   0.558720  -8.708449   3.477337   0.307366 -10.938930   0.030401  -1.741343   0.007553   2.425755  -1.075004   4.484976  -1.876829   1.298343  -4.140479   6.790820   0.028715   0.008522  -5.105004  -1.339485  -0.098378  -0.704625  -0.002999  -0.000421  -3.087941  -0.876579   4.187744  10.130940  -0.039614   0.006927  -7.356709   0.377992   0.171720   0.699602  -0.002569   0.000301
 -2.375737   0.920475   3.974930  -0.021489   0.739159  -0.167030  -0.299530   0.398853   0.220402   1.839916  -1.098980   0.273439  -1.018229   0.536680   0.462661   1.409872  -1.474637   8.148751   3.206442   0.443458  13.560853   0.026383   1.825916  -0.006556   2.412928   0.413650  -3.027928   0.579403   0.635039  -9.863294   3.838146   0.316476 -12.874605   0.026026  -1.804341   0.006378   2.788636  -1.391452   3.336604  -2.301635   1.307909  -5.016563   7.729794   0.030821   0.004835  -5.614001  -1.570050   0.047782  -0.763944  -0.002823  -0.000176  -3.392415  -0.839019   5.236465  10.784413  -0.037083   0.006997  -7.976664   0.561665   0.132283   0.874937  -0.003478   0.000634
 -2.375700   0.916307   3.974652   0.098589   0.676924  -0.251457  -0.302688   0.506955   0.323556   1.923564  -1.170287   0.279342  -1.220654   0.573266   0.495966   1.600063  -1.542818   9.024127   3.664753   0.603286  15.106333   0.023394   1.931283  -0.005985   2.705796   0.493305  -2.041285   0.691113   0.700319 -10.722890   4.174269   0.323865 -14.533561   0.021960  -1.855937   0.005368   3.124998  -1.658739   2.306371  -2.738016   1.307083  -5.828427   8.585655   0.031317   0.001825  -6.087275  -1.789282   0.182073  -0.804826  -0.002535  -0.000024  -3.719510  -0.811126   6.244942  11.285462  -0.033584   0.006644  -8.558718   0.734999   0.098268   1.046230  -0.004100   0.000861
 -2.375966   0.912872   3.973927   0.271220   0.926208  -0.466810  -0.280755   0.496237   0.491953   2.003574  -1.319753   0.342452  -1.416419   0.603170   0.531555   1.780050  -1.613586   9.821917   4.088539   0.754489  16.498875   0.020547   2.025094  -0.005498   2.981741   0.540519  -1.291371   0.774496   0.707085 -11.478832   4.477862   0.289101 -16.011146   0.018702  -1.913350   0.004585   3.444080  -1.929535   1.548783  -3.071952   1.619825  -5.738034   9.127829   0.026005   0.003692  -7.647117  -1.527877   0.870171  -0.701139  -0.002574   0.000723  -4.203029  -0.833544   7.320021  11.690986  -0.029693   0.007132  -9.096997   0.894815   0.067341   1.246837  -0.004721   0.001578
 -2.375496   0.912438   3.973451   0.256377   1.223608  -0.553831  -0.140716   0.502979   0.640523   2.169074  -1.461778   0.363652  -1.583810   0.632500   0.557532   1.943711  -1.660908  10.639371   4.477045   0.913825  17.804353   0.018125   2.112178  -0.005070   3.245910   0.561662  -0.707172   0.838598   0.686618 -12.307091   4.753424   0.227736 -17.430912   0.016107  -1.972430   0.003942   3.748782  -2.201156   0.926055  -3.502120   1.585091  -5.690631  10.064213   0.021445   0.004285  -7.870065  -1.721962   1.136949  -0.759206  -0.001949   0.000568  -4.678139  -0.615310   7.639298  12.410108  -0.024511   0.009972  -9.341021   1.171057  -0.207496   1.459111  -0.003663   0.002896
 -2.374920   0.912150   3.973314   0.237192   1.496909  -0.530390  -0.054639   0.541026   0.688971   2.319526  -1.570470   0.361655  -1.728067   0.661071   0.584229   2.102450  -1.716073  11.293095   4.838490   1.065616  18.997840   0.015911   2.196157  -0.004644   3.501602   0.611898  -0.076455   0.908445   0.695637 -12.934206   5.014993   0.184183 -18.705518   0.013762  -2.025482   0.003338   4.039803  -2.481767   0.275728  -3.836426   1.553112  -5.756422  10.871488   0.017714   0.004498  -8.126384  -1.901168   1.246450  -0.777137  -0.001550   0.000451  -5.046499  -0.472663   7.661549  13.023630  -0.019339   0.010720  -9.687772   1.356010  -0.337377   1.615139  -0.002785   0.003213
 -2.374436   0.911860   3.973348   0.233666   1.708680  -0.494204  -0.000137   0.615195   0.720536   2.440529  -1.637464   0.355983  -1.867401   0.688592   0.606574   2.249973  -1.764967  11.828828   5.172616   1.212326  20.061966   0.013876   2.275036  -0.004223   3.745898   0.667181   0.470420   0.984580   0.731010 -13.424035   5.264469   0.163258 -19.831347   0.011596  -2.067016   0.002782   4.314201  -2.720022  -0.266157  -4.144083   1.511776  -5.833445  11.592204   0.014603   0.004177  -8.386698  -2.087687   1.332243  -0.795145  -0.001235   0.000369  -5.369779  -0.374275   7.636656  13.580721  -0.015138   0.010433 -10.027922   1.502669  -0.419134   1.741838  -0.002126   0.003125
 -2.374030   0.911678   3.973542   0.222980   1.738348  -0.429667   0.102296   0.756630   0.679174   2.467979  -1.599527   0.386892  -1.985124   0.665105   0.630310   2.291741  -1.843788  12.135221   5.402001   1.336369  20.799824   0.011779   2.345717  -0.003671   3.915625   0.772920   1.376220   1.062089   0.813867 -13.617707   5.382690   0.143706 -20.780725   0.010010  -2.140644   0.002298   4.539288  -2.873617  -1.087264  -4.389958   1.461441  -5.936063  12.138395   0.011870   0.002925  -8.563508  -2.130157   1.345391  -0.713664  -0.000963   0.000225  -5.462229  -0.253311   7.569466  13.753143  -0.012025   0.008618  -9.975531   1.625960  -0.411846   1.848187  -0.001688   0.002767
 -2.373726   0.911546   3.973738   0.249939   1.708867  -0.366921   0.184513   0.907434   0.630797   2.467871  -1.536627   0.411037  -2.101644   0.641557   0.654017   2.317031  -1.896861  12.248405   5.608892   1.461241  21.360518   0.009861   2.415704  -0.003198   4.069464   0.890520   2.092996   1.134974   0.893718 -13.634209   5.492883   0.133765 -21.551446   0.008473  -2.207710   0.001894   4.747454  -3.004801  -1.746690  -4.639247   1.411951  -6.034483  12.590905   0.009593   0.001804  -8.744561  -2.168671   1.352518  -0.633017  -0.000746   0.000075  -5.538444  -0.148922   7.502018  13.853149  -0.009585   0.006977  -9.939956   1.737513  -0.399424   1.968897  -0.001342   0.002415
 -2.373530   0.911441   3.973920   0.298907   1.650561  -0.310220   0.260724   1.058715   0.581412   2.458198  -1.464774   0.428043  -2.214328   0.619229   0.676357   2.331614  -1.930616  12.227157   5.797725   1.584011  21.789605   0.008149   2.483593  -0.002798   4.215354   1.008237   2.604469   1.201568   0.963855 -13.530032   5.595366   0.127673 -22.183165   0.007068  -2.268938   0.001567   4.945578  -3.114170  -2.218890  -4.885528   1.363896  -6.121785  12.978683   0.007717   0.000920  -8.925427  -2.205661   1.358512  -0.560665  -0.000579  -0.000048  -5.610256  -0.055499   7.443019  13.916558  -0.007653   0.005608  -9.918624   1.840357  -0.384771   2.078790  -0.001071   0.002067
 -2.373438   0.911351   3.974090   0.362099   1.577656  -0.259305   0.336321   1.205899   0.531339   2.447001  -1.390685   0.438857  -2.321042   0.598208   0.697099   2.338857  -1.951175  12.113902   5.971132   1.702233  22.119988   0.006655   2.548435  -0.002458   4.354577   1.120927   2.953649   1.261478   1.023990 -13.345245   5.690160   0.122729 -22.707702   0.005834  -2.325624   0.001305   5.135041  -3.207330  -2.541238  -5.126492   1.317787  -6.197178  13.318793   0.006179   0.000261  -9.101390  -2.240994   1.364178  -0.495516  -0.000452  -0.000140  -5.679643   0.028877   7.393637  13.955392  -0.006117   0.004493  -9.906876   1.935555  -0.368810   2.178842  -0.000861   0.001746
